<svg width="200" height="46" viewBox="0 0 200 46" fill="none" xmlns="http://www.w3.org/2000/svg">
<rect width="199.999" height="45.9827" fill="white"/>
<path d="M4.53111 31.9624C3.37228 31.9618 2.25789 31.5177 1.41788 30.7217C0.577863 29.9257 0.0763045 28.8387 0.0166828 27.6847V40.9903C0.00366912 41.5898 0.110844 42.1858 0.331922 42.7434C0.552999 43.301 0.883527 43.809 1.30412 44.2375C1.72471 44.666 2.22689 45.0065 2.78121 45.239C3.33553 45.4714 3.93082 45.5912 4.53217 45.5912C5.13351 45.5912 5.7288 45.4714 6.28312 45.239C6.83744 45.0065 7.33962 44.666 7.76021 44.2375C8.1808 43.809 8.51133 43.301 8.73241 42.7434C8.95349 42.1858 9.06066 41.5898 9.04765 40.9903V27.6826C8.98752 28.8369 8.48558 29.9243 7.64528 30.7205C6.80498 31.5168 5.69035 31.9613 4.53111 31.9624V31.9624Z" fill="#00C49A"/>
<path d="M4.52712 31.9624C7.02737 31.9624 9.05423 29.9415 9.05423 27.4485C9.05423 24.9555 7.02737 22.9346 4.52712 22.9346C2.02686 22.9346 0 24.9555 0 27.4485C0 29.9415 2.02686 31.9624 4.52712 31.9624Z" fill="#7FE1CC"/>
<path d="M43.3572 9.45001C42.5428 9.45204 41.7429 9.23474 41.042 8.82108C40.3411 8.40741 39.7653 7.81272 39.3753 7.09979C38.9853 6.38686 38.7956 5.58216 38.8262 4.77065C38.8569 3.95913 39.1067 3.17093 39.5494 2.48926L23.9414 24.2152L27.4256 29.0667C28.0287 29.7902 28.3898 30.6837 28.4585 31.6221C28.5271 32.5604 28.2999 33.4967 27.8085 34.2999L38.8365 18.9398V40.7502C38.8926 39.5938 39.3929 38.5032 40.2335 37.7046C41.0742 36.906 42.1908 36.4605 43.3519 36.4605C44.5131 36.4605 45.6297 36.906 46.4704 37.7046C47.311 38.5032 47.8113 39.5938 47.8674 40.7502V5.1702C47.8084 6.32377 47.3076 7.41078 46.4685 8.20708C45.6293 9.00338 44.5157 9.44827 43.3572 9.45001Z" fill="#00B6AB"/>
<path d="M23.9394 27.4486C24.6052 27.4479 25.263 27.5939 25.8656 27.8762C26.4683 28.1584 27.001 28.5699 27.4257 29.0812L23.9415 24.2298L8.20235 2.30762C7.85718 1.82689 7.42042 1.41865 6.91701 1.10622C6.4136 0.793792 5.85341 0.583286 5.26841 0.486723C4.68341 0.39016 4.08507 0.409431 3.50754 0.543436C2.93001 0.677441 2.3846 0.923555 1.90247 1.26773C1.42033 1.6119 1.01091 2.04739 0.697563 2.54933C0.38422 3.05127 0.1731 3.60984 0.0762549 4.19313C-0.02059 4.77643 -0.00126265 5.37303 0.133134 5.94888C0.26753 6.52473 0.514363 7.06854 0.859539 7.54928L20.0744 34.3123C20.0998 34.3545 20.1273 34.3946 20.1548 34.4346C19.7065 33.7543 19.4512 32.9656 19.4161 32.1523C19.381 31.3389 19.5673 30.5313 19.9553 29.815C20.3434 29.0988 20.9186 28.5006 21.62 28.0839C22.3215 27.6673 23.1229 27.4478 23.9394 27.4486V27.4486Z" fill="#00C49A"/>
<path d="M141.902 6.10486C137.73 2.39036 132.063 0.422363 125.516 0.422363H111.977C113.157 0.447845 114.281 0.93339 115.107 1.77497C115.933 2.61654 116.395 3.7472 116.395 4.9247C116.395 6.1022 115.933 7.23286 115.107 8.07444C114.281 8.91601 113.157 9.40156 111.977 9.42704H125.516C129.81 9.42704 133.398 10.5998 135.881 12.8188C138.509 15.1538 139.833 18.573 139.833 22.9921C139.833 27.4111 138.503 30.7965 135.877 33.1168C133.381 35.3231 129.797 36.4917 125.511 36.4917H116.502V40.5163V40.5268C116.516 40.6766 116.525 40.8263 116.525 40.9803C116.525 42.1777 116.048 43.326 115.199 44.1729C114.35 45.0198 113.199 45.4958 111.998 45.4964H125.516C132.044 45.4964 137.701 43.5452 141.872 39.8539C146.45 35.8062 148.868 29.9739 148.868 22.9794C148.868 15.9849 146.461 10.159 141.902 6.10486Z" fill="#0099CE"/>
<path d="M116.5 40.5123V18.4699C116.474 17.2927 115.987 16.1723 115.143 15.3487C114.299 14.5251 113.165 14.064 111.984 14.064C110.803 14.064 109.669 14.5251 108.825 15.3487C107.981 16.1723 107.494 17.2927 107.469 18.4699V40.9763C107.467 39.8182 107.912 38.7036 108.711 37.8632C109.51 37.0229 110.603 36.521 111.763 36.4614C112.923 36.4017 114.061 36.789 114.943 37.543C115.825 38.297 116.382 39.3601 116.5 40.5123V40.5123Z" fill="#00A7BD"/>
<path d="M172.456 41.4703C172.456 40.2731 172.933 39.125 173.782 38.2784C174.631 37.4319 175.782 36.9563 176.983 36.9563V36.9563C174.212 36.9499 171.504 36.1252 169.202 34.5862C166.9 33.0472 165.106 30.8629 164.048 28.3088C162.989 25.7547 162.713 22.9453 163.254 20.2348C163.795 17.5244 165.128 15.0344 167.087 13.0789C167.929 12.2283 168.397 11.0791 168.389 9.88431C168.381 8.68948 167.897 7.54681 167.044 6.70767C166.191 5.86853 165.038 5.40166 163.84 5.40977C162.641 5.41788 161.495 5.9003 160.654 6.75091C157.473 9.939 155.299 13.9874 154.402 18.3948C153.505 22.8022 153.924 27.3752 155.607 31.5475C157.291 35.7198 160.164 39.3083 163.872 41.8687C167.58 44.4292 171.96 45.849 176.469 45.9526H176.488C175.381 45.8307 174.357 45.3061 173.614 44.4792C172.87 43.6523 172.458 42.5811 172.456 41.4703V41.4703Z" fill="#0099CE"/>
<path d="M176.984 9.02788C179.484 9.02788 181.511 7.00692 181.511 4.51394C181.511 2.02096 179.484 0 176.984 0C174.484 0 172.457 2.02096 172.457 4.51394C172.457 7.00692 174.484 9.02788 176.984 9.02788Z" fill="#7FC4EF"/>
<path d="M23.9373 36.4756C26.4375 36.4756 28.4644 34.4547 28.4644 31.9617C28.4644 29.4687 26.4375 27.4478 23.9373 27.4478C21.437 27.4478 19.4102 29.4687 19.4102 31.9617C19.4102 34.4547 21.437 36.4756 23.9373 36.4756Z" fill="#7FE1CC"/>
<path d="M43.3513 45.4986C45.8516 45.4986 47.8785 43.4776 47.8785 40.9846C47.8785 38.4917 45.8516 36.4707 43.3513 36.4707C40.8511 36.4707 38.8242 38.4917 38.8242 40.9846C38.8242 43.4776 40.8511 45.4986 43.3513 45.4986Z" fill="#7FDAD5"/>
<path d="M43.3513 9.45024C45.8516 9.45024 47.8785 7.42928 47.8785 4.9363C47.8785 2.44332 45.8516 0.422363 43.3513 0.422363C40.8511 0.422363 38.8242 2.44332 38.8242 4.9363C38.8242 7.42928 40.8511 9.45024 43.3513 9.45024Z" fill="#7FDAD5"/>
<path d="M111.996 45.4922C114.496 45.4922 116.523 43.4713 116.523 40.9783C116.523 38.4853 114.496 36.4644 111.996 36.4644C109.496 36.4644 107.469 38.4853 107.469 40.9783C107.469 43.4713 109.496 45.4922 111.996 45.4922Z" fill="#7FD3DE"/>
<path d="M111.991 9.42981C114.484 9.42981 116.505 7.41452 116.505 4.92853C116.505 2.44254 114.484 0.427246 111.991 0.427246C109.498 0.427246 107.477 2.44254 107.477 4.92853C107.477 7.41452 109.498 9.42981 111.991 9.42981Z" fill="#7FCCE6"/>
<path d="M177.413 0.0195312C178.547 0.129605 179.596 0.661472 180.354 1.50907C181.111 2.35666 181.52 3.4577 181.499 4.59262C181.478 5.72753 181.029 6.81292 180.241 7.63233C179.453 8.45175 178.385 8.94498 177.248 9.01366V9.01366C180.928 9.10163 184.424 10.6295 186.983 13.267C189.542 15.9046 190.957 19.44 190.923 23.1094C190.889 26.7788 189.408 30.2874 186.8 32.8771C184.193 35.4668 180.668 36.9296 176.988 36.9495C178.153 36.9385 179.277 37.3756 180.127 38.1698C180.977 38.9641 181.487 40.0544 181.551 41.214C181.616 42.3737 181.229 43.5134 180.472 44.3962C179.715 45.2791 178.646 45.837 177.488 45.9541C183.511 45.8161 189.241 43.3308 193.449 39.0308C197.657 34.7308 200.008 28.9584 199.998 22.9507C199.988 16.943 197.619 11.1781 193.397 6.89166C189.175 2.60519 183.438 0.138232 177.413 0.0195312V0.0195312Z" fill="#008AE0"/>
<path d="M176.984 45.9825C179.484 45.9825 181.511 43.9615 181.511 41.4685C181.511 38.9756 179.484 36.9546 176.984 36.9546C174.484 36.9546 172.457 38.9756 172.457 41.4685C172.457 43.9615 174.484 45.9825 176.984 45.9825Z" fill="#7FCCE6"/>
<path d="M73.5796 41.4696C73.5796 40.2724 74.0566 39.1243 74.9056 38.2778C75.7546 37.4312 76.9061 36.9557 78.1067 36.9557V36.9557C75.3346 36.9502 72.6263 36.1261 70.3235 34.5873C68.0207 33.0484 66.2268 30.8639 65.1681 28.3094C64.1093 25.7549 63.8333 22.9449 64.3748 20.2342C64.9162 17.5234 66.251 15.0333 68.2105 13.0782C69.0521 12.2267 69.52 11.0768 69.5113 9.8814C69.5026 8.68597 69.0179 7.54297 68.164 6.70383C67.3101 5.86469 66.1568 5.39816 64.9579 5.40686C63.759 5.41556 62.6126 5.89879 61.771 6.75023C58.5898 9.93833 56.4162 13.9867 55.5192 18.3941C54.6222 22.8015 55.0413 27.3745 56.7245 31.5468C58.4078 35.7192 61.2813 39.3077 64.9894 41.8681C68.6974 44.4285 73.0771 45.8483 77.5863 45.9519H77.6075C76.5007 45.8295 75.4781 45.3046 74.735 44.4777C73.992 43.6508 73.5806 42.5799 73.5796 41.4696V41.4696Z" fill="#00B6AB"/>
<path d="M78.1092 9.02788C80.6094 9.02788 82.6363 7.00692 82.6363 4.51394C82.6363 2.02096 80.6094 0 78.1092 0C75.6089 0 73.582 2.02096 73.582 4.51394C73.582 7.00692 75.6089 9.02788 78.1092 9.02788Z" fill="#7FD3DE"/>
<path d="M78.5463 0.0195312C79.6794 0.129605 80.7292 0.661472 81.4864 1.50907C82.2436 2.35666 82.6526 3.4577 82.6317 4.59262C82.6109 5.72753 82.1618 6.81292 81.374 7.63233C80.5862 8.45175 79.5176 8.94498 78.3813 9.01366V9.01366C82.0605 9.10163 85.5572 10.6295 88.1159 13.267C90.6746 15.9046 92.0898 19.44 92.0556 23.1094C92.0214 26.7788 90.5407 30.2874 87.9333 32.8771C85.3259 35.4668 81.8013 36.9296 78.1211 36.9495C79.276 36.9523 80.3861 37.3952 81.2242 38.1874C82.0624 38.9795 82.5653 40.0612 82.6299 41.2109C82.6945 42.3606 82.3159 43.4915 81.5718 44.372C80.8276 45.2526 79.774 45.8163 78.6267 45.9478C84.6268 45.7755 90.3226 43.2751 94.5018 38.9789C98.6809 34.6827 101.014 28.9298 101.003 22.9447C100.993 16.9595 98.6399 11.2148 94.4457 6.93314C90.2515 2.65147 84.547 0.170951 78.5463 0.0195312V0.0195312Z" fill="#00A7BD"/>
<path d="M78.1092 45.9825C80.6094 45.9825 82.6363 43.9615 82.6363 41.4685C82.6363 38.9756 80.6094 36.9546 78.1092 36.9546C75.6089 36.9546 73.582 38.9756 73.582 41.4685C73.582 43.9615 75.6089 45.9825 78.1092 45.9825Z" fill="#7FDAD5"/>
</svg>
